<?xml version="1.0" encoding="UTF-8" standalone="no"?>
<svg
   xmlns:dc="http://purl.org/dc/elements/1.1/"
   xmlns:cc="http://creativecommons.org/ns#"
   xmlns:rdf="http://www.w3.org/1999/02/22-rdf-syntax-ns#"
   xmlns:svg="http://www.w3.org/2000/svg"
   xmlns="http://www.w3.org/2000/svg"
   version="1.1"
   id="svg2"
   viewBox="0 0 247.48737 360.11943"
   height="100px"
   width="70px">
  <defs
     id="defs4" />
  <metadata
     id="metadata7">
    <rdf:RDF>
      <cc:Work
         rdf:about="">
        <dc:format>image/svg+xml</dc:format>
        <dc:type
           rdf:resource="http://purl.org/dc/dcmitype/StillImage" />
        <dc:title></dc:title>
      </cc:Work>
    </rdf:RDF>
  </metadata>
  <g
      transform="translate(-234.86046,-434.14883)"
      id="layer1">
    <path
       id="Glass"
       d="m 257.1788,462.10977 a 101.52029,157.27892 0 0 0 -0.0946,2.92341 101.52029,157.27892 0 0 0 69.68084,149.1369 101.52029,157.27892 0 0 0 -69.68084,149.21378 101.52029,157.27892 0 0 0 0.0666,2.92341 l 202.87869,0 a 101.52029,157.27892 0 0 0 0.0946,-2.92341 101.52029,157.27892 0 0 0 -69.68084,-149.1369 101.52029,157.27892 0 0 0 69.68084,-149.21378 101.52029,157.27892 0 0 0 -0.0666,-2.92341 l -202.87869,0 z"
       style="fill:#000000;fill-opacity:1;stroke:none;stroke-width:2;stroke-miterlimit:4;stroke-dasharray:none;stroke-opacity:1" />
    <rect
       y="434.14883"
       x="234.86046"
       height="23.233509"
       width="247.48738"
       id="Top"
       style="fill:#000000;fill-opacity:1;stroke:none;stroke-width:2;stroke-miterlimit:4;stroke-dasharray:none;stroke-opacity:1" />
    <rect
       transform="scale(1,-1)"
       y="-794.26825"
       x="234.86046"
       height="23.233509"
       width="247.48738"
       id="Bottom"
       style="fill:#000000;fill-opacity:1;stroke:none;stroke-width:2;stroke-miterlimit:4;stroke-dasharray:none;stroke-opacity:1" />
  </g>
</svg>
